<?xml version="1.0" encoding="UTF-8"?><svg id="a" xmlns="http://www.w3.org/2000/svg" xmlns:xlink="http://www.w3.org/1999/xlink" viewBox="0 0 500 500"><defs><style>.c{fill:#2965ab;stroke:#28437f;}.c,.d,.e,.f,.g,.h{stroke-miterlimit:10;stroke-width:2px;}.d{fill:#29509d;stroke:#273370;}.e{fill:#2991cd;stroke:#2463a3;}.f{fill:#2b3990;stroke:#262262;}.i{fill:url(#b);}.j{fill:none;}.g{fill:#2b7abb;stroke:#275390;}.h{fill:#27aae1;stroke:#1c75bc;}</style><pattern id="b" x="0" y="0" width="100" height="100" patternTransform="translate(7750 7750) scale(2)" patternUnits="userSpaceOnUse" viewBox="0 0 100 100"><g><rect class="j" width="100" height="100"/><circle class="f" cx="150" cy="-50" r="50"/><circle class="f" cx="50" cy="-50" r="50"/><circle class="f" cx="-50" cy="-50" r="50"/><g><circle class="f" cx="100" cy="-25" r="50"/><circle class="d" cx="100" cy="-25" r="41"/><circle class="c" cx="100" cy="-25" r="32"/></g><g><circle class="f" cx="0" cy="-25" r="50"/><circle class="d" cx="0" cy="-25" r="41"/><circle class="c" cx="0" cy="-25" r="32"/></g><circle class="f" cx="150" cy="0" r="50"/><g><circle class="f" cx="50" cy="0" r="50"/><circle class="d" cx="50" cy="0" r="41"/><circle class="c" cx="50" cy="0" r="32"/><circle class="g" cx="50" cy="0" r="23"/><circle class="e" cx="50" cy="0" r="14"/><circle class="h" cx="50" cy="0" r="5"/></g><circle class="f" cx="-50" cy="0" r="50"/><g><circle class="f" cx="100" cy="25" r="50"/><circle class="d" cx="100" cy="25" r="41"/><circle class="c" cx="100" cy="25" r="32"/><circle class="g" cx="100" cy="25" r="23"/><circle class="e" cx="100" cy="25" r="14"/><circle class="h" cx="100" cy="25" r="5"/></g><g><circle class="f" cx="0" cy="25" r="50"/><circle class="d" cx="0" cy="25" r="41"/><circle class="c" cx="0" cy="25" r="32"/><circle class="g" cx="0" cy="25" r="23"/><circle class="e" cx="0" cy="25" r="14"/><circle class="h" cx="0" cy="25" r="5"/></g><circle class="f" cx="150" cy="50" r="50"/><g><circle class="f" cx="50" cy="50" r="50"/><circle class="d" cx="50" cy="50" r="41"/><circle class="c" cx="50" cy="50" r="32"/><circle class="g" cx="50" cy="50" r="23"/><circle class="e" cx="50" cy="50" r="14"/><circle class="h" cx="50" cy="50" r="5"/></g><circle class="f" cx="-50" cy="50" r="50"/><g><circle class="f" cx="100" cy="75" r="50"/><circle class="d" cx="100" cy="75" r="41"/><circle class="c" cx="100" cy="75" r="32"/><circle class="g" cx="100" cy="75" r="23"/><circle class="e" cx="100" cy="75" r="14"/><circle class="h" cx="100" cy="75" r="5"/></g><g><circle class="f" cx="0" cy="75" r="50"/><circle class="d" cx="0" cy="75" r="41"/><circle class="c" cx="0" cy="75" r="32"/><circle class="g" cx="0" cy="75" r="23"/><circle class="e" cx="0" cy="75" r="14"/><circle class="h" cx="0" cy="75" r="5"/></g><circle class="f" cx="150" cy="100" r="50"/><g><circle class="f" cx="50" cy="100" r="50"/><circle class="d" cx="50" cy="100" r="41"/><circle class="c" cx="50" cy="100" r="32"/><circle class="g" cx="50" cy="100" r="23"/><circle class="e" cx="50" cy="100" r="14"/><circle class="h" cx="50" cy="100" r="5"/></g><circle class="f" cx="-50" cy="100" r="50"/><g><circle class="f" cx="100" cy="125" r="50"/><circle class="d" cx="100" cy="125" r="41"/><circle class="c" cx="100" cy="125" r="32"/></g><g><circle class="f" cx="0" cy="125" r="50"/><circle class="d" cx="0" cy="125" r="41"/><circle class="c" cx="0" cy="125" r="32"/></g><circle class="f" cx="150" cy="150" r="50"/><circle class="f" cx="50" cy="150" r="50"/><circle class="f" cx="-50" cy="150" r="50"/></g></pattern></defs><rect class="i" width="500" height="500"/></svg>